# xmcd
#
# Track frame offsets:
#	150
#	15970
#	37088
#	55678
#	74783
#	93377
#	111025
#	129825
#	145686
#
# Disc length: 2177 seconds
#
# Revision: 0
# Processed by: cddbd v1.5.1PL0 Copyright (c) Steve Scherf et al.
# Submitted via: EasyCDDAExtractor 8.0.2.1
#
DISCID=73087f09
DTITLE=Heatwave - Best Of Heatwave
DYEAR=1996
DGENRE=R&B
TTITLE0=Boogie Nights
TTITLE1=Always and Forever
TTITLE2=Lettin' It Loose
TTITLE3=Look After Love
TTITLE4=The GrooveLine
TTITLE5=Gangsters Of The Groove
TTITLE6=Mind Blowing Decisions
TTITLE7=Posin' Til Closin'
TTITLE8=The Big Guns
EXTD=
EXTT0=
EXTT1=
EXTT2=
EXTT3=
EXTT4=
EXTT5=
EXTT6=
EXTT7=
EXTT8=
PLAYORDER=
